# xmcd
#
# Track frame offsets:
#	150
#	21300
#	39478
#	59328
#	76420
#	94478
#	121783
#	140945
#	160353
#	183025
#	209798
#
# Disc length: 3036 seconds
#
# Revision: 4
# Processed by: cddbd v1.5.2PL0 Copyright (c) Steve Scherf et al.
# Submitted via: audiograbber 1.83.01
#
DISCID=9f0bda0b
DTITLE=Portishead - Portishead
DYEAR=1997
DGENRE=Electronic
TTITLE0=Cowboys
TTITLE1=All Mine
TTITLE2=Undenied
TTITLE3=Half Day Closing
TTITLE4=Over
TTITLE5=Humming
TTITLE6=Mourning Air
TTITLE7=Seven Months
TTITLE8=Only You
TTITLE9=Elysium
TTITLE10=Western Eyes
EXTD=YEAR: 1997
EXTT0=
EXTT1=
EXTT2=
EXTT3=
EXTT4=
EXTT5=
EXTT6=
EXTT7=
EXTT8=
EXTT9=
EXTT10=
PLAYORDER=
